<svg width="54" height="54" viewBox="0 0 54 54" fill="none" xmlns="http://www.w3.org/2000/svg">
<path d="M53.4389 41.5294C51.5152 42.0188 50.3255 41.5505 49.2581 39.9474C46.8619 36.3572 44.2167 32.9316 41.6644 29.4427C41.3353 28.9913 40.9936 28.5483 40.5675 27.9872C37.5469 32.0625 34.5305 35.9438 31.6997 39.9811C30.6872 41.4239 29.6241 42.0525 27.7341 41.5421L39.091 26.2997L28.5188 12.5339C30.3371 12.1796 31.5942 12.361 32.708 13.9894C35.1675 17.5838 37.8802 21.0052 40.5844 24.6249C43.3055 21.0178 45.9844 17.5922 48.5156 14.0316C49.5324 12.5888 50.625 12.0403 52.4517 12.5719C51.068 14.4071 49.7138 16.2127 48.3511 18.0057C46.5117 20.423 44.7061 22.8699 42.7992 25.2366C42.12 26.0803 42.2297 26.6288 42.8372 27.4261C46.3641 32.0625 49.8488 36.7453 53.4389 41.5294ZM0.561118 26.0466C0.864868 24.5236 1.06737 22.9711 1.48924 21.4777C4.02049 12.4369 14.3986 8.678 21.5283 14.2805C25.7049 17.5669 26.7427 22.1991 26.536 27.4219H2.99534C2.64096 36.7917 9.38674 42.4491 17.9846 39.5635C21.001 38.551 22.7771 36.1885 23.6672 33.2353C24.1186 31.7546 24.8653 31.5225 26.2575 31.9444C25.5446 35.64 23.9288 38.7282 20.5538 40.6603C15.4913 43.5544 8.26455 42.6178 4.46346 38.5974C2.21909 36.2349 1.26565 33.2944 0.843774 30.1177C0.780493 29.6114 0.649712 29.1136 0.548462 28.6116C0.556899 27.7566 0.561118 26.9016 0.561118 26.0466ZM3.03752 25.418H24.3127C24.1735 18.6427 19.9547 13.8291 14.1877 13.7869C7.85956 13.7363 3.31174 18.436 3.03752 25.418Z" fill="black"/>
</svg>
