<svg width="54" height="54" viewBox="0 0 54 54" fill="none" xmlns="http://www.w3.org/2000/svg">
<g clip-path="url(#clip0_14_75)">
<path d="M0.593994 0.593994H53.406V53.4064H0.593994V0.593994Z" fill="#F0DB4F"/>
<path d="M49.0839 40.8105C48.697 38.4012 47.126 36.3774 42.4723 34.4904C40.8556 33.7475 39.0534 33.2155 38.5163 31.9904C38.3256 31.2774 38.3003 30.8758 38.421 30.4442C38.7673 29.0436 40.4392 28.6069 41.7643 29.0085C42.6178 29.2946 43.4257 29.9523 43.913 31.0015C46.1919 29.5258 46.1873 29.5355 47.7786 28.5213C47.196 27.618 46.8851 27.2012 46.5037 26.8148C45.133 25.2838 43.2654 24.4953 40.2785 24.5556L38.7226 24.7569C37.2317 25.1336 35.8108 25.9162 34.9776 26.9654C32.4776 29.8021 33.1906 34.7667 36.2327 36.8099C39.2297 39.0593 43.6324 39.571 44.1948 41.6745C44.7419 44.2496 42.3022 45.0832 39.8773 44.7871C38.0902 44.4154 37.0963 43.5071 36.0218 41.8555C34.044 43 34.044 43 32.0106 44.1695C32.4928 45.2237 32.9995 45.7009 33.8078 46.6142C37.6333 50.4946 47.2065 50.3039 48.9236 44.4306C48.9932 44.2289 49.4556 42.884 49.0839 40.8105ZM29.3043 24.8666H24.3645L24.3443 37.6376C24.3443 40.3536 24.4848 42.8435 24.0431 43.6067C23.3204 45.1077 21.4477 44.9217 20.5942 44.6306C19.7256 44.2036 19.2839 43.5966 18.7722 42.7385C18.6317 42.4921 18.5262 42.3014 18.4908 42.2866L14.4745 44.7462C15.1423 46.1168 16.1262 47.3065 17.3863 48.0794C19.2687 49.2092 21.7987 49.5555 24.4447 48.948C26.1668 48.4464 27.6526 47.4074 28.4306 45.8257C29.5553 43.7522 29.314 41.2425 29.3038 38.4666C29.3292 33.9377 29.3043 29.4097 29.3043 24.8666Z" fill="#323330"/>
</g>
<defs>
<clipPath id="clip0_14_75">
<rect width="54" height="54" fill="white"/>
</clipPath>
</defs>
</svg>
