<svg width="55" height="54" viewBox="0 0 55 54" fill="none" xmlns="http://www.w3.org/2000/svg">
<path d="M8.43715 48.1456L4.19562 0.570374H50.8044L46.5586 48.1385L27.4717 53.43L8.43715 48.1456Z" fill="#1572B6"/>
<path d="M27.5004 49.3856L42.9238 45.1094L46.5523 4.46008H27.5004V49.3856Z" fill="#33A9DC"/>
<path d="M27.5004 21.6966H35.2216L35.7548 15.7216H27.5004V9.88666H42.1319L41.9918 11.4522L40.5575 27.5316H27.5004V21.6966Z" fill="white"/>
<path d="M27.535 36.8503L27.5093 36.8579L21.0111 35.1033L20.5956 30.4496H14.7391L15.5563 39.6115L27.5084 42.9287L27.535 42.9211V36.8503Z" fill="#EBEBEB"/>
<path d="M34.7255 27.2848L34.0226 35.0988L27.5148 36.8554V42.9262L39.4766 39.6111L39.5644 38.6252L40.5794 27.2848H34.7255Z" fill="white"/>
<path d="M27.5202 9.88666V15.7216H13.4262L13.3094 14.4104L13.0436 11.4522L12.904 9.88666H27.5202ZM27.5004 21.6975V27.5324H21.0841L20.9673 26.2212L20.7011 23.263L20.5618 21.6975H27.5004Z" fill="#EBEBEB"/>
</svg>
