<svg width="54" height="54" viewBox="0 0 54 54" fill="none" xmlns="http://www.w3.org/2000/svg">
<path d="M8.03124 48.0414L3.81038 0.700745H50.1896L45.9641 48.0343L26.9717 53.2993L8.03124 48.0414Z" fill="#E44D26"/>
<path d="M27 49.275L42.347 45.0199L45.9578 4.57141H27V49.275Z" fill="#F16529"/>
<path d="M27 22.1294H19.3168L18.7861 16.1835H27V10.3777H12.4407L12.5799 11.9352L14.0067 27.9357H27V22.1294ZM27 37.2085L26.9743 37.2157L20.5082 35.4691L20.0952 30.839H14.2661L15.0795 39.9553L26.9734 43.2569L27 43.2498V37.2085Z" fill="#EBEBEB"/>
<path d="M26.9798 22.1294V27.9357H34.1293L33.4555 35.4658L26.9798 37.2136V43.2544L38.883 39.9553L38.9703 38.9745L40.3346 23.6887L40.476 22.1294H38.9116H26.9798ZM26.9798 10.3777V16.1835H41.0046L41.121 14.8791L41.3859 11.9352L41.5247 10.3777H26.9798Z" fill="white"/>
</svg>
