<svg width="55" height="54" viewBox="0 0 55 54" fill="none" xmlns="http://www.w3.org/2000/svg">
<path fill-rule="evenodd" clip-rule="evenodd" d="M37.6411 18.0613C38.3182 20.0201 38.8059 22.0198 38.9662 24.0925C39.1653 26.6638 39.0742 29.217 38.5321 31.7461C38.5173 31.8157 38.4861 31.8811 38.4629 31.9486C38.2929 31.949 38.1195 31.9279 37.9533 31.9537C36.5489 32.1743 35.1457 32.403 33.7425 32.6304C32.2921 32.8654 30.8396 33.0911 29.3917 33.3421C28.8787 33.4307 28.2438 33.3248 28.0367 34.0344C28.0308 34.0538 27.9717 34.0572 27.9375 34.0681L28.0076 29.8279L27.9363 19.5965L28.6121 19.4805C29.7174 19.2995 30.8227 19.116 31.9289 18.9401C33.249 18.7304 34.5703 18.5267 35.8912 18.3221C36.4738 18.2314 37.0572 18.1482 37.6411 18.0613Z" fill="#439934"/>
<path fill-rule="evenodd" clip-rule="evenodd" d="M26.5419 46.429C25.8289 45.816 25.0911 45.23 24.4076 44.5854C20.7302 41.1168 18.0403 37.0343 16.7156 32.1123C16.3507 30.7576 16.1073 29.381 16.0292 27.9813C15.9744 27.0017 15.8951 26.0132 15.9642 25.0387C16.1486 22.4467 16.5232 19.8796 17.2834 17.3829L17.3252 17.3247C17.399 17.423 17.5054 17.5099 17.5429 17.6209C18.2848 19.8062 19.022 21.993 19.7544 24.1814C22.057 31.058 24.3566 37.9363 26.663 44.8111C26.7081 44.9453 26.825 45.0554 26.9089 45.1765L26.5419 46.429Z" fill="#45A538"/>
<path fill-rule="evenodd" clip-rule="evenodd" d="M37.641 18.0613C37.0571 18.1482 36.4732 18.2313 35.8906 18.3212C34.5697 18.5258 33.2484 18.7296 31.9284 18.9392C30.8222 19.1152 29.7169 19.2987 28.6116 19.4797L27.9358 19.5957L27.9307 19.1548C27.9083 18.7924 27.8699 18.4305 27.8657 18.0681C27.8366 15.757 27.8185 13.446 27.7898 11.135C27.7721 9.68836 27.7455 8.24218 27.716 6.79599C27.6978 5.89739 27.6784 4.99838 27.6379 4.10105C27.616 3.61885 27.5383 3.13918 27.5067 2.65697C27.489 2.3798 27.5135 2.10052 27.5189 1.82208C27.8636 2.48991 28.2007 3.1628 28.5551 3.82557C29.1149 4.8735 30.0067 5.64554 30.8096 6.48802C33.9833 9.81746 36.2366 13.6886 37.641 18.0613Z" fill="#46A037"/>
<path fill-rule="evenodd" clip-rule="evenodd" d="M27.9371 34.0677C27.9713 34.0567 28.0308 34.0533 28.0362 34.0339C28.2434 33.3243 28.8783 33.4302 29.3913 33.3416C30.8392 33.091 32.2917 32.8649 33.7421 32.6299C35.1453 32.4025 36.5484 32.1739 37.9528 31.9532C38.1191 31.9271 38.2924 31.9486 38.4625 31.9482C38.2001 32.8847 37.9933 33.8415 37.6605 34.7524C37.2825 35.7855 36.8252 36.7938 36.3396 37.7823C35.6131 39.2569 34.7134 40.6396 33.6594 41.901C32.8498 42.8747 31.9475 43.7746 31.043 44.6635C30.543 45.155 29.9537 45.5553 29.4052 45.997L29.2631 45.9L28.7509 45.4621L28.221 44.3007C27.8591 42.9458 27.6616 41.5523 27.6329 40.1503L27.6426 39.9136L27.7148 38.8901C27.7388 38.5408 27.7709 38.1919 27.7857 37.8418C27.8401 36.5837 27.8873 35.3257 27.9371 34.0677Z" fill="#409433"/>
<path fill-rule="evenodd" clip-rule="evenodd" d="M27.937 34.0677C27.8873 35.3257 27.84 36.5837 27.7864 37.8422C27.7717 38.1923 27.7396 38.5412 27.7156 38.8905L27.3928 39.0125C26.6761 36.9022 25.9589 34.8144 25.2573 32.721C24.0971 29.2579 22.9509 25.7892 21.7924 22.3252C20.8568 19.5292 19.9146 16.7354 18.9659 13.9438C18.9216 13.813 18.7942 13.7109 18.7056 13.5953L20.7711 9.79761C20.8419 9.92079 20.9356 10.036 20.9803 10.1684C21.9369 12.9959 22.8887 15.825 23.8356 18.6557C25.0658 22.3387 26.2883 26.0246 27.5177 29.708C27.5666 29.8552 27.6476 29.9911 27.7248 30.156L28.0075 29.827L27.937 34.0677Z" fill="#4FAA41"/>
<path fill-rule="evenodd" clip-rule="evenodd" d="M18.7061 13.5958C18.7947 13.7114 18.9216 13.8135 18.9664 13.9442C19.9151 16.7358 20.8572 19.5296 21.7929 22.3256C22.9514 25.7896 24.0976 29.2583 25.2578 32.7215C25.9589 34.8144 26.6761 36.9027 27.3933 39.0129L27.716 38.891L27.6439 39.9144L27.5785 40.1503C27.4663 41.2708 27.3718 42.3938 27.2351 43.5118C27.1663 44.072 27.0204 44.6221 26.9094 45.1769C26.8259 45.0558 26.7086 44.9457 26.6635 44.8116C24.3571 37.9363 22.0574 31.0584 19.7548 24.1819C19.0223 21.9935 18.2851 19.8066 17.5434 17.6213C17.5058 17.5103 17.3999 17.4234 17.3257 17.3251L18.7061 13.5958Z" fill="#4AA73C"/>
<path fill-rule="evenodd" clip-rule="evenodd" d="M28.0071 29.8274L27.7244 30.1565C27.6472 29.9915 27.5662 29.8552 27.5173 29.7084C26.2883 26.025 25.0653 22.3391 23.8351 18.6561C22.8882 15.8254 21.9365 12.9963 20.9799 10.1689C20.9356 10.0364 20.8419 9.92081 20.7706 9.79804L23.3251 6.43781C23.4057 6.54538 23.5204 6.64115 23.5622 6.76223C24.2709 8.83841 24.9745 10.9166 25.6728 12.9967C26.3255 14.939 26.9684 16.8843 27.6286 18.8241C27.6729 18.954 27.8269 19.046 27.9298 19.1556L27.9349 19.5965C27.9594 23.0064 27.9834 26.4167 28.0071 29.8274Z" fill="#57AE47"/>
<path fill-rule="evenodd" clip-rule="evenodd" d="M27.9307 19.1548C27.8278 19.0451 27.6738 18.9532 27.6295 18.8232C26.9692 16.8834 26.3263 14.9382 25.6737 12.9959C24.9753 10.916 24.2718 8.83786 23.563 6.76139C23.5213 6.64032 23.4065 6.54455 23.3259 6.43697C24.1566 5.6236 24.9615 4.78111 25.8255 4.00528C26.5938 3.31594 27.2114 2.57682 27.2397 1.48753C27.2409 1.44239 27.2646 1.39725 27.3008 1.27069L27.5198 1.82166C27.5143 2.10052 27.4894 2.37938 27.5076 2.65655C27.5392 3.13875 27.6168 3.61843 27.6388 4.10063C27.6793 4.99796 27.6987 5.89697 27.7168 6.79557C27.7459 8.24175 27.7725 9.68794 27.7906 11.1346C27.8189 13.4456 27.8375 15.7566 27.8666 18.0676C27.8699 18.4309 27.9079 18.7924 27.9307 19.1548Z" fill="#60B24F"/>
<path fill-rule="evenodd" clip-rule="evenodd" d="M26.9085 45.1765C27.0195 44.6217 27.1655 44.0712 27.2342 43.5113C27.3713 42.3938 27.4654 41.2703 27.5776 40.1498L27.6055 40.1456L27.6333 40.1503C27.662 41.5523 27.8595 42.9458 28.2214 44.3007C28.1472 44.3986 28.0421 44.4859 28.0029 44.5964C27.6962 45.4613 27.4072 46.3328 27.0988 47.1977C27.0566 47.3158 26.9393 47.4078 26.8566 47.5116L26.5415 46.429L26.9085 45.1765Z" fill="#A9AA88"/>
<path fill-rule="evenodd" clip-rule="evenodd" d="M26.8571 47.512C26.9397 47.4082 27.0574 47.3162 27.0992 47.1981C27.4076 46.3333 27.697 45.4621 28.0033 44.5968C28.0425 44.4863 28.1471 44.399 28.2218 44.3011L28.7513 45.4629C28.6467 45.6114 28.5024 45.7452 28.4441 45.9105L27.43 48.8886C27.3882 49.0079 27.2456 49.0923 27.1503 49.1931L26.8571 47.512Z" fill="#B6B598"/>
<path fill-rule="evenodd" clip-rule="evenodd" d="M27.1503 49.1927C27.246 49.0923 27.3882 49.0075 27.43 48.8882L28.4442 45.9101C28.502 45.7452 28.6467 45.611 28.7513 45.4625L29.2639 45.9C29.0162 46.1447 28.8787 46.4274 28.9614 46.7847L28.8057 47.2943C28.7348 47.3816 28.6323 47.4576 28.5973 47.5576C28.2433 48.5713 27.9054 49.5906 27.5489 50.6043C27.5038 50.733 27.3785 50.8338 27.2899 50.9469C27.2438 50.3622 27.1972 49.7775 27.1503 49.1927Z" fill="#C2C1A7"/>
<path fill-rule="evenodd" clip-rule="evenodd" d="M27.2903 50.9469C27.3785 50.8334 27.5038 50.7326 27.5493 50.6043C27.9058 49.591 28.2437 48.5717 28.5977 47.5576C28.6327 47.458 28.7348 47.3816 28.8061 47.2943L28.5914 49.6336C28.534 49.6998 28.4509 49.7576 28.4235 49.8348C28.1809 50.5157 27.9522 51.2017 27.7088 51.8826C27.6586 52.0231 27.5624 52.1471 27.4873 52.2783C27.4207 52.191 27.3013 52.1066 27.2958 52.0155C27.2743 51.6607 27.289 51.3034 27.2903 50.9469Z" fill="#CECDB7"/>
<path fill-rule="evenodd" clip-rule="evenodd" d="M27.4869 52.2783C27.562 52.1467 27.6582 52.0227 27.7084 51.8826C27.9523 51.2021 28.1805 50.5162 28.4231 49.8348C28.4505 49.7576 28.534 49.7003 28.591 49.6336L28.596 51.1692L28.0822 52.4872L27.4869 52.2783Z" fill="#DBDAC7"/>
<path fill-rule="evenodd" clip-rule="evenodd" d="M28.0822 52.4876L28.596 51.1696L28.7019 52.7289L28.0822 52.4876Z" fill="#EBE9DC"/>
<path fill-rule="evenodd" clip-rule="evenodd" d="M28.9614 46.7851C28.8787 46.4277 29.0158 46.1447 29.2639 45.9004L29.406 45.9974L28.9614 46.7851Z" fill="#CECDB7"/>
<path fill-rule="evenodd" clip-rule="evenodd" d="M27.6333 40.1507L27.6055 40.146L27.5776 40.1503L27.643 39.9144L27.6333 40.1507Z" fill="#4FAA41"/>
</svg>
