<svg width="54" height="54" viewBox="0 0 54 54" fill="none" xmlns="http://www.w3.org/2000/svg">
<path d="M27 31.8094C29.6561 31.8094 31.8094 29.6561 31.8094 27C31.8094 24.3438 29.6561 22.1906 27 22.1906C24.3438 22.1906 22.1906 24.3438 22.1906 27C22.1906 29.6561 24.3438 31.8094 27 31.8094Z" fill="#61DAFB"/>
<path d="M45.2672 19.0687C44.3391 18.7312 43.3688 18.3937 42.3563 18.0984C42.6094 17.0859 42.8203 16.0734 42.9891 15.1031C43.875 9.53436 42.9047 5.61092 40.2047 4.09218C39.4031 3.62811 38.5172 3.41718 37.5047 3.41718C34.5516 3.41718 30.7969 5.61093 27 9.28124C23.2031 5.61093 19.4484 3.41718 16.4953 3.41718C15.4828 3.41718 14.5969 3.62811 13.7953 4.09218C11.0953 5.65311 10.125 9.57655 11.011 15.1031C11.1797 16.0734 11.3906 17.0859 11.6438 18.0984C10.6313 18.3937 9.66095 18.689 8.73283 19.0687C3.45939 21.0937 0.590637 23.8781 0.590637 27C0.590637 30.1219 3.50158 32.9062 8.73283 34.9312C9.66095 35.2687 10.6313 35.6062 11.6438 35.9016C11.3906 36.9141 11.1797 37.9265 11.011 38.8969C10.125 44.4656 11.0953 48.3891 13.7953 49.9078C14.5969 50.3719 15.4828 50.5828 16.4953 50.5828C19.4906 50.5828 23.2453 48.389 27 44.7187C30.7969 48.389 34.5516 50.5828 37.5047 50.5828C38.5172 50.5828 39.4031 50.3719 40.2047 49.9078C42.9047 48.3469 43.875 44.4234 42.9891 38.8969C42.8203 37.9265 42.6094 36.9141 42.3563 35.9016C43.3688 35.6062 44.3391 35.3109 45.2672 34.9312C50.5406 32.9062 53.4094 30.1219 53.4094 27C53.4094 23.8781 50.5406 21.0937 45.2672 19.0687ZM39.0234 6.20155C40.7531 7.21405 41.3438 10.3359 40.6266 14.7656C40.5 15.6516 40.2891 16.5797 40.0359 17.55C37.8422 17.0437 35.5219 16.7062 33.075 16.4953C31.6406 14.4703 30.1641 12.6562 28.6875 11.0109C31.8094 7.93124 34.9734 5.82186 37.5469 5.82186C38.0953 5.82186 38.6016 5.94843 39.0234 6.20155ZM34.2985 31.2187C33.5391 32.5687 32.6531 33.9187 31.725 35.2687C30.1641 35.3953 28.6031 35.4375 27 35.4375C25.3547 35.4375 23.7938 35.3953 22.275 35.2687C21.3469 33.9187 20.5031 32.5687 19.7438 31.2187C18.9422 29.8266 18.1828 28.3922 17.5078 27C18.1828 25.6078 18.9422 24.1734 19.7438 22.7812C20.5031 21.4312 21.3891 20.0812 22.3172 18.7312C23.8781 18.6047 25.4391 18.5625 27.0422 18.5625C28.6875 18.5625 30.2485 18.6047 31.7672 18.7312C32.6953 20.0812 33.5391 21.4312 34.2985 22.7812C35.1 24.1734 35.8594 25.6078 36.5344 27C35.8172 28.3922 35.1 29.7844 34.2985 31.2187ZM37.8 29.8265C38.4328 31.3031 38.9391 32.7375 39.4031 34.1719C37.9688 34.5094 36.45 34.7625 34.8469 34.9734C35.3531 34.1719 35.9016 33.3281 36.3656 32.4422C36.8719 31.5562 37.3359 30.6703 37.8 29.8265ZM27 41.2594C25.9875 40.1625 25.0172 38.9812 24.0891 37.7578C25.0594 37.8 26.0297 37.8422 27 37.8422C27.9703 37.8422 28.9406 37.8 29.9109 37.7578C28.9828 38.9812 28.0125 40.1625 27 41.2594ZM19.1531 34.9312C17.55 34.7203 16.0313 34.4672 14.5969 34.1297C15.0609 32.7375 15.5672 31.2609 16.2 29.7844C16.6641 30.6281 17.1281 31.514 17.6344 32.3578C18.1406 33.2859 18.6469 34.0875 19.1531 34.9312ZM16.2 24.1734C15.5672 22.6969 15.0609 21.2625 14.5969 19.8281C16.0313 19.4906 17.55 19.2375 19.1531 19.0266C18.6469 19.8281 18.0984 20.6719 17.6344 21.5578C17.1281 22.4437 16.6641 23.3297 16.2 24.1734ZM27 12.7406C28.0125 13.8375 28.9828 15.0187 29.9109 16.2422C28.9406 16.2 27.9703 16.1578 27 16.1578C26.0297 16.1578 25.0594 16.2 24.0891 16.2422C25.0172 15.0187 25.9875 13.8375 27 12.7406ZM36.3656 21.6L34.8469 19.0687C36.45 19.2797 37.9688 19.5328 39.4031 19.8703C38.9391 21.2625 38.4328 22.7391 37.8 24.2156C37.3359 23.3297 36.8719 22.4437 36.3656 21.6ZM13.3735 14.7656C12.6563 10.3359 13.2469 7.21405 14.9766 6.20155C15.3984 5.94843 15.9047 5.82186 16.4531 5.82186C18.9844 5.82186 22.1484 7.88905 25.3125 11.0109C23.8359 12.614 22.3594 14.4703 20.925 16.4953C18.4781 16.7062 16.1578 17.0859 13.9641 17.55C13.7109 16.5797 13.5422 15.6516 13.3735 14.7656ZM2.95314 27C2.95314 25.0172 5.35783 22.9078 9.57658 21.3469C10.4203 21.0094 11.3484 20.7141 12.2766 20.4609C12.9516 22.5703 13.7953 24.8062 14.8078 27.0422C13.7953 29.2781 12.9094 31.4719 12.2766 33.5812C6.4547 31.8937 2.95314 29.3625 2.95314 27ZM14.9766 47.7984C13.2469 46.7859 12.6563 43.6641 13.3735 39.2344C13.5 38.3484 13.7109 37.4203 13.9641 36.45C16.1578 36.9562 18.4781 37.2937 20.925 37.5047C22.3594 39.5297 23.8359 41.3437 25.3125 42.9891C22.1906 46.0687 19.0266 48.1781 16.4531 48.1781C15.9047 48.1781 15.3984 48.0516 14.9766 47.7984ZM40.6266 39.2344C41.3438 43.6641 40.7531 46.7859 39.0234 47.7984C38.6016 48.0516 38.0953 48.1781 37.5469 48.1781C35.0156 48.1781 31.8516 46.1109 28.6875 42.9891C30.1641 41.3859 31.6406 39.5297 33.075 37.5047C35.5219 37.2937 37.8422 36.9141 40.0359 36.45C40.2891 37.4203 40.4578 38.3484 40.6266 39.2344ZM44.4235 32.6531C43.5797 32.9906 42.6516 33.2859 41.7234 33.5391C41.0485 31.4297 40.2047 29.1937 39.1922 26.9578C40.2047 24.7219 41.0906 22.5281 41.7234 20.4187C47.5453 22.1062 51.0469 24.6375 51.0469 27C51.0469 28.9828 48.6 31.0922 44.4235 32.6531Z" fill="#61DAFB"/>
</svg>
