<svg width="55" height="54" viewBox="0 0 55 54" fill="none" xmlns="http://www.w3.org/2000/svg">
<path d="M10.0639 19.8281H52.1122V50.9077H10.0639V19.8281Z" fill="white"/>
<path d="M1.13281 26.962V53.3292H53.8672V0.594849H1.13281V26.962ZM43.6283 24.8527C44.8913 25.1458 46.0393 25.8064 46.9273 26.7511C47.4162 27.2601 47.8412 27.8268 48.193 28.4386C48.193 28.5061 45.9148 30.0459 44.5269 30.9066C44.4762 30.9403 44.2738 30.7209 44.0502 30.3877C43.7968 29.9505 43.4368 29.5846 43.0037 29.3242C42.5707 29.0637 42.0787 28.9173 41.5737 28.8984C39.9748 28.7888 38.9455 29.6283 38.9539 31.0078C38.9411 31.3512 39.0197 31.6919 39.1817 31.995C39.5319 32.7248 40.1858 33.1594 42.2361 34.0453C46.0119 35.6695 47.6277 36.7411 48.6317 38.2641C49.7539 39.9516 50.0028 42.6769 49.2434 44.6934C48.3997 46.8872 46.3325 48.3764 43.4089 48.87C42.0736 49.023 40.7244 49.0089 39.3927 48.8278C37.3515 48.4914 35.4713 47.5113 34.0264 46.0308C33.5413 45.495 32.5963 44.0986 32.6553 43.9973C32.809 43.8826 32.9712 43.7796 33.1405 43.6894L35.0938 42.6094L36.6083 41.7319L36.9247 42.2002C37.4588 42.9639 38.1384 43.6147 38.9244 44.1155C40.6119 45.0014 42.9153 44.8791 44.0544 43.8539C44.4368 43.4783 44.6754 42.9804 44.7286 42.4469C44.7818 41.9135 44.6462 41.3783 44.3455 40.9345C43.9236 40.3481 43.0798 39.8545 40.7216 38.8252C38.0005 37.6523 36.8277 36.9267 35.7561 35.7708C35.0874 35.0078 34.5935 34.1079 34.3091 33.1341C34.0971 32.0213 34.0658 30.8818 34.2162 29.7591C34.7773 27.1308 36.7475 25.2956 39.6247 24.7514C40.9572 24.5868 42.3068 24.6238 43.6283 24.8611V24.8527ZM31.2505 27.0633V29.2233H24.4034V48.7266H19.5477V29.2191H12.6837V27.1097C12.6622 26.3823 12.6791 25.6542 12.7344 24.9286C12.7681 24.8906 16.9531 24.8906 22.0156 24.8906H31.2252L31.2505 27.0633Z" fill="#007ACC"/>
</svg>
