<svg width="17" height="17" viewBox="0 0 17 17" fill="none" xmlns="http://www.w3.org/2000/svg">
<path fill-rule="evenodd" clip-rule="evenodd" d="M4.25 2.125C3.82731 2.125 3.42193 2.29291 3.12305 2.5918C2.82416 2.89069 2.65625 3.29606 2.65625 3.71875V13.2813C2.65625 13.7039 2.82416 14.1093 3.12305 14.4082C3.42193 14.7071 3.82731 14.875 4.25 14.875H12.75C13.1727 14.875 13.5781 14.7071 13.877 14.4082C14.1758 14.1093 14.3438 13.7039 14.3438 13.2813V7.03481C14.3434 6.61227 14.1752 6.20716 13.8763 5.90856L10.5612 2.59144C10.4131 2.44334 10.2371 2.32591 10.0435 2.24588C9.84988 2.16584 9.64238 2.12477 9.43288 2.125H4.25ZM5.3125 8.23438C5.3125 8.02303 5.39646 7.82034 5.5459 7.6709C5.69534 7.52146 5.89803 7.4375 6.10938 7.4375H10.8906C11.102 7.4375 11.3047 7.52146 11.4541 7.6709C11.6035 7.82034 11.6875 8.02303 11.6875 8.23438C11.6875 8.44572 11.6035 8.64841 11.4541 8.79785C11.3047 8.94729 11.102 9.03125 10.8906 9.03125H6.10938C5.89803 9.03125 5.69534 8.94729 5.5459 8.79785C5.39646 8.64841 5.3125 8.44572 5.3125 8.23438ZM5.3125 11.4219C5.3125 11.2105 5.39646 11.0078 5.5459 10.8584C5.69534 10.709 5.89803 10.625 6.10938 10.625H10.8906C11.102 10.625 11.3047 10.709 11.4541 10.8584C11.6035 11.0078 11.6875 11.2105 11.6875 11.4219C11.6875 11.6332 11.6035 11.8359 11.4541 11.9854C11.3047 12.1348 11.102 12.2188 10.8906 12.2188H6.10938C5.89803 12.2188 5.69534 12.1348 5.5459 11.9854C5.39646 11.8359 5.3125 11.6332 5.3125 11.4219Z" fill="white"/>
</svg>
