<svg width="16" height="16" viewBox="0 0 16 16" fill="none" xmlns="http://www.w3.org/2000/svg">
<g clip-path="url(#clip0_22_14)">
<path fill-rule="evenodd" clip-rule="evenodd" d="M8 0.637817C3.83162 0.637817 0.4515 4.01719 0.4515 8.18632C0.4515 11.5216 2.61437 14.3509 5.61362 15.3492C5.99075 15.4192 6.12925 15.1854 6.12925 14.9861C6.12925 14.8061 6.12225 14.2114 6.119 13.5807C4.019 14.0373 3.57587 12.6901 3.57587 12.6901C3.2325 11.8176 2.73775 11.5856 2.73775 11.5856C2.05275 11.1171 2.78937 11.1268 2.78937 11.1268C3.54725 11.1799 3.9465 11.9047 3.9465 11.9047C4.61975 13.0584 5.71237 12.7249 6.14312 12.5322C6.21087 12.0443 6.4065 11.7112 6.62237 11.5227C4.94575 11.3321 3.18312 10.6847 3.18312 7.79232C3.18312 6.96819 3.47812 6.29482 3.961 5.76607C3.8825 5.57607 3.62412 4.80832 4.034 3.76857C4.034 3.76857 4.66775 3.56569 6.11025 4.54232C6.7125 4.37494 7.35837 4.29082 8 4.28794C8.64125 4.29082 9.2875 4.37469 9.89087 4.54207C11.3316 3.56544 11.9646 3.76832 11.9646 3.76832C12.3755 4.80794 12.1171 5.57582 12.0387 5.76582C12.5227 6.29457 12.8156 6.96794 12.8156 7.79207C12.8156 10.6913 11.0497 11.3296 9.36887 11.5166C9.63975 11.7508 9.881 12.2103 9.881 12.9144C9.881 13.9244 9.87225 14.7373 9.87225 14.9859C9.87225 15.1868 10.0082 15.4222 10.3907 15.3481C13.3882 14.3488 15.5486 11.5203 15.5486 8.18632C15.5485 4.01744 12.1687 0.637817 8 0.637817Z" fill="#181616"/>
<path d="M3.3105 11.4757C3.29388 11.5132 3.23488 11.5244 3.18113 11.4988C3.12613 11.4743 3.0955 11.4232 3.11325 11.3856C3.1295 11.3468 3.18863 11.3362 3.24325 11.3621C3.29825 11.3867 3.3295 11.4383 3.31038 11.4758L3.3105 11.4757ZM3.61625 11.8168C3.58038 11.8502 3.51 11.8347 3.46225 11.7818C3.41275 11.7293 3.4035 11.6589 3.44013 11.6251C3.47738 11.5918 3.54563 11.6076 3.59513 11.6601C3.64438 11.7133 3.65413 11.7831 3.61638 11.8169L3.61625 11.8168ZM3.914 12.2514C3.86775 12.2837 3.792 12.2536 3.74525 12.1864C3.699 12.1192 3.699 12.0386 3.7465 12.0064C3.79313 11.9742 3.86775 12.0033 3.91525 12.0698C3.96125 12.1379 3.96125 12.2187 3.914 12.2514ZM4.32163 12.6716C4.28038 12.7172 4.19213 12.7049 4.12763 12.6428C4.06175 12.5819 4.04338 12.4953 4.08475 12.4498C4.12675 12.4041 4.21538 12.4168 4.28025 12.4786C4.34613 12.5393 4.366 12.6261 4.32188 12.6714L4.32163 12.6716ZM4.88413 12.9154C4.86575 12.9746 4.781 13.0014 4.69538 12.9762C4.61 12.9503 4.55413 12.8812 4.57163 12.8214C4.58913 12.7618 4.6745 12.7339 4.76063 12.7608C4.846 12.7866 4.90188 12.8553 4.88413 12.9154ZM5.502 12.9606C5.50413 13.0228 5.43163 13.0743 5.342 13.0756C5.25163 13.0777 5.1785 13.0272 5.17763 12.9659C5.17763 12.9031 5.24863 12.8522 5.33888 12.8504C5.4285 12.8488 5.50213 12.8988 5.50213 12.9604L5.502 12.9606ZM6.07675 12.8628C6.0875 12.9234 6.02513 12.9858 5.936 13.0024C5.8485 13.0187 5.76725 12.9809 5.756 12.9208C5.74525 12.8586 5.80875 12.7962 5.89625 12.7801C5.9855 12.7647 6.0655 12.8012 6.07675 12.8628Z" fill="#181616"/>
</g>
<defs>
<clipPath id="clip0_22_14">
<rect width="16" height="16" fill="white"/>
</clipPath>
</defs>
</svg>
