<svg width="33" height="32" viewBox="0 0 33 32" fill="none" xmlns="http://www.w3.org/2000/svg">
<g clip-path="url(#clip0_33_72)">
<path d="M16.3851 0C7.33758 0 0.000999451 7.3353 0.000999451 16.3841C0.000999451 23.623 4.69553 29.7646 11.2055 31.931C12.0243 32.0827 12.325 31.5756 12.325 31.1428C12.325 30.7521 12.3096 29.4615 12.3027 28.0925C7.74462 29.0835 6.78282 26.1594 6.78282 26.1594C6.03748 24.2656 4.96356 23.7619 4.96356 23.7619C3.4771 22.7451 5.07569 22.7661 5.07569 22.7661C6.72087 22.8815 7.58718 24.4544 7.58718 24.4544C9.04855 26.9591 11.4201 26.235 12.355 25.8163C12.5021 24.7575 12.9267 24.0346 13.3953 23.6255C9.75614 23.2113 5.9306 21.8063 5.9306 15.5284C5.9306 13.7396 6.5706 12.278 7.61866 11.1306C7.44855 10.718 6.88778 9.05165 7.77738 6.79475C7.77738 6.79475 9.15326 6.35443 12.2843 8.47424C13.5911 8.11123 14.9927 7.92922 16.3851 7.92294C17.7775 7.92922 19.1803 8.1111 20.4896 8.47424C23.6167 6.35456 24.9907 6.79488 24.9907 6.79488C25.8825 9.05152 25.3214 10.7181 25.1513 11.1306C26.2018 12.278 26.8375 13.7396 26.8375 15.5284C26.8375 21.8213 23.0046 23.2069 19.3563 23.6125C19.9439 24.121 20.4676 25.1181 20.4676 26.6467C20.4676 28.8388 20.4486 30.6031 20.4486 31.1428C20.4486 31.5789 20.7435 32.0897 21.574 31.9287C28.0804 29.76 32.769 23.6207 32.769 16.3843C32.769 7.3353 25.4335 0 16.3851 0ZM6.13745 23.3395C6.10135 23.4209 5.97322 23.4454 5.85662 23.3894C5.7377 23.3361 5.67102 23.2251 5.70942 23.1434C5.74474 23.0596 5.87313 23.0362 5.99166 23.0924C6.1107 23.1459 6.17854 23.2579 6.13745 23.3395ZM6.94334 24.0586C6.86526 24.1311 6.71242 24.0974 6.60874 23.983C6.50161 23.8688 6.48151 23.716 6.56074 23.6425C6.64138 23.57 6.78948 23.604 6.89687 23.7181C7.00414 23.8337 7.02487 23.9854 6.94334 24.0586ZM7.4963 24.9787C7.39582 25.0484 7.23172 24.983 7.13022 24.8374C7.02986 24.6917 7.02986 24.517 7.13239 24.447C7.23415 24.377 7.39582 24.4399 7.4986 24.5846C7.5987 24.7327 7.5987 24.9074 7.49617 24.9788M8.43108 26.0444C8.34135 26.1435 8.14999 26.1169 8.00996 25.9817C7.86673 25.8496 7.82692 25.6622 7.91703 25.5631C8.00791 25.4638 8.2003 25.4917 8.34135 25.6259C8.48343 25.7577 8.52695 25.9465 8.43108 26.0444ZM9.63966 26.4041C9.59998 26.5325 9.41566 26.5908 9.23018 26.5363C9.04484 26.4801 8.92362 26.3299 8.961 26.2002C8.99953 26.0709 9.18462 26.0102 9.3715 26.0686C9.55658 26.1244 9.67818 26.2737 9.63966 26.4042M11.0149 26.5569C11.0195 26.692 10.8622 26.804 10.6674 26.8065C10.4715 26.8109 10.3129 26.7016 10.3108 26.5684C10.3108 26.4321 10.4646 26.3212 10.6606 26.3178C10.8554 26.314 11.0149 26.4225 11.0149 26.5569ZM12.3659 26.5051C12.3892 26.6369 12.2539 26.7724 12.0604 26.8084C11.8703 26.8431 11.6942 26.7617 11.67 26.631C11.6464 26.4959 11.7843 26.3604 11.9741 26.3255C12.1679 26.2918 12.3412 26.3711 12.3659 26.5051Z" fill="#161614"/>
</g>
<defs>
<clipPath id="clip0_33_72">
<rect width="32.77" height="32" fill="white"/>
</clipPath>
</defs>
</svg>
